<?xml version="1.0" encoding="utf-8"?>
<!-- Generator: Adobe Illustrator 27.8.0, SVG Export Plug-In . SVG Version: 6.00 Build 0)  -->
<svg version="1.1" id="Layer_1" xmlns="http://www.w3.org/2000/svg" xmlns:xlink="http://www.w3.org/1999/xlink" x="0px" y="0px"
	 viewBox="0 0 4800 3300" style="enable-background:new 0 0 4800 3300;" xml:space="preserve">
<style type="text/css">
	.st0{fill:#64839E;}
</style>
<g>
	<path class="st0" d="M3353.9,107.3c-84.9,524.6-524.6,567.5-524.6,1049.1l-23.8-248c-319.3,148.7-600.9,343.4-701,724.9
		c-49.8-14.3-56.3-89.1-42.9-243.2c-231.2,150.6-369.3,351.4-391,615.2l-66.8-171.7c-89.7,188.5-143.5,391.2-57.2,648.6L1432.1,2320
		c-11.6,354,4.8,658.1-28.6,872.7c271.6-861.6,728.1-1425,1302.7-1797.8c-472.2,443.2-824.7,898-1011.8,1368.6
		c165.6-39,331.1-86.6,496-181.2l-186-33.4c351.4-25.3,567.5-171.7,834.5-453H2548c364.5-91,610.2-313.3,705.8-701l-271.8,66.8
		C3325.3,1280.4,3477.8,858.6,3353.9,107.3z"/>
</g>
</svg>
