<?xml version="1.0" encoding="utf-8"?>
<!-- Generator: Adobe Illustrator 27.8.0, SVG Export Plug-In . SVG Version: 6.00 Build 0)  -->
<svg version="1.1" id="Layer_1" xmlns="http://www.w3.org/2000/svg" xmlns:xlink="http://www.w3.org/1999/xlink" x="0px" y="0px"
	 viewBox="0 0 4800 3300" style="enable-background:new 0 0 4800 3300;" xml:space="preserve">
<style type="text/css">
	.st0{fill:#64839E;}
</style>
<g>
	<g>
		<path class="st0" d="M3335.5,2702.1c206.6-2.6,464.7-27,628.7-193.4c0,0-57.2,221.1-627.9,255c-319.9,18.9-640.8-31.8-952.4-106.5
			c-63.3-15.2-100.3-12.2-116.6,9.4c-14.8,19.6-8.8,46.9,2.8,89.5c8.5,31.1,18.1,66.4,13.2,101.6c-10.1,72.3-78.2,118-137.2,129.9
			c-60.6,12.2-121.1-0.9-174.5-12.4l-294.8-63.6c-28-6-56,1.7-76.8,21.1c-21.3,19.8-31.1,47.9-26.9,76.9l0.3,2
			c10.9,78.4-7.5,152-50.5,201.7c-49.9,57.8-131,86.2-247.7,86.8c-1.8,0-3.7,0-5.5,0c-158.1,0-434-158.1-434-158.1
			c136.5,64,288.4,97.4,439.2,96.6c97.9-0.5,163.8-21.9,201.5-65.5c31.4-36.4,44.6-92.1,36.1-153.1l-0.2-1.7
			c-7-48.6,10.1-97.4,45.8-130.7c35.8-33.4,83.8-46.6,131.7-36.3l294.8,63.6c49.8,10.8,101.3,21.9,149.4,12.2
			c39.6-8,82.7-37.3,88.4-78.1c3.2-22.7-4-49-11.6-76.9c-12.5-45.7-26.6-97.6,7.4-142.7c48.2-63.9,144-40.9,180.1-32.2"/>
	</g>
	<path class="st0" d="M2786.2,0c-84.9,524.6-524.6,567.5-524.6,1049.1l-23.8-248c-319.3,148.7-600.9,343.4-701,724.9
		c-49.8-14.3-56.3-89.1-42.9-243.2c-231.2,150.6-369.3,351.4-391,615.2l-66.8-171.7c-89.7,188.5-143.5,391.2-57.2,648.6
		l-114.5-162.1c-11.6,354,4.8,658.1-28.6,872.7c271.6-861.6,728.1-1425,1302.7-1797.8c-472.2,443.2-824.7,898-1011.8,1368.6
		c165.6-39,331.1-86.6,496-181.2l-186-33.4c351.4-25.3,567.5-171.7,834.5-453h-290.9c364.5-91,610.2-313.3,705.8-701l-271.8,66.8
		C2757.6,1173.1,2910.1,751.3,2786.2,0z"/>
</g>
</svg>
